# MagicaVoxel @ Ephtracy

# group
o 

# material
mtllib knife.mtl
usemtl palette

# normals
vn -1 0 0
vn 1 0 0
vn 0 0 1
vn 0 0 -1
vn 0 -1 0
vn 0 1 0

# texcoords
vt 0.701172 0.5
vt 0.876953 0.5
vt 0.966797 0.5
vt 0.970703 0.5
vt 0.974609 0.5

# verts
v -0.2 0.4 0.1
v -0.2 0.4 0
v -0.2 0.5 0.1
v -0.2 0.5 0
v -0.2 0.7 0.1
v -0.2 0.7 0
v -0.2 1 0.1
v -0.2 1 0
v -0.1 0.1 0.1
v -0.1 0.1 0
v -0.1 0.2 0.1
v -0.1 0.2 0
v -0.1 0.3 0.1
v -0.1 0.3 0
v -0.1 0.4 0.2
v -0.1 0.4 0.1
v -0.1 0.4 0
v -0.1 0.4 -0.1
v -0.1 0.5 0.2
v -0.1 0.5 0.1
v -0.1 0.5 0
v -0.1 0.5 -0.1
v -0.1 0.7 0.1
v -0.1 0.7 0
v -0.1 1 0.1
v -0.1 1 0
v -0.1 1.1 0.1
v -0.1 1.1 0
v 0 0 0.1
v 0 0 0
v 0 0.1 0.1
v 0 0.1 0
v 0 1.1 0.1
v 0 1.1 0
v 0 1.2 0.1
v 0 1.2 0
v 0.1 0 0.1
v 0.1 0 0
v 0.1 0.2 0.1
v 0.1 0.2 0
v 0.1 0.3 0.1
v 0.1 0.3 0
v 0.1 0.4 0.2
v 0.1 0.4 0.1
v 0.1 0.4 0
v 0.1 0.4 -0.1
v 0.1 0.5 0.2
v 0.1 0.5 0.1
v 0.1 0.5 0
v 0.1 0.5 -0.1
v 0.1 0.7 0.1
v 0.1 0.7 0
v 0.1 1 0.1
v 0.1 1 0
v 0.1 1.1 0.1
v 0.1 1.1 0
v 0.1 1.2 0.1
v 0.1 1.2 0
v 0.2 0.4 0.1
v 0.2 0.4 0
v 0.2 0.5 0.1
v 0.2 0.5 0
v -0.1 0.4 0.2
v -0.1 0.5 0.2
v 0.1 0.4 0.2
v 0.1 0.5 0.2
v -0.2 0.4 0.1
v -0.2 0.5 0.1
v -0.2 0.7 0.1
v -0.2 1 0.1
v -0.1 0.1 0.1
v -0.1 0.2 0.1
v -0.1 0.3 0.1
v -0.1 0.4 0.1
v -0.1 0.5 0.1
v -0.1 0.7 0.1
v -0.1 1 0.1
v -0.1 1.1 0.1
v 0 0 0.1
v 0 0.1 0.1
v 0 0.5 0.1
v 0 0.7 0.1
v 0 1 0.1
v 0 1.1 0.1
v 0 1.2 0.1
v 0.1 0 0.1
v 0.1 0.2 0.1
v 0.1 0.3 0.1
v 0.1 0.4 0.1
v 0.1 0.5 0.1
v 0.1 0.7 0.1
v 0.1 1 0.1
v 0.1 1.1 0.1
v 0.1 1.2 0.1
v 0.2 0.4 0.1
v 0.2 0.5 0.1
v -0.2 0.4 0
v -0.2 0.5 0
v -0.2 0.7 0
v -0.2 1 0
v -0.1 0.1 0
v -0.1 0.2 0
v -0.1 0.3 0
v -0.1 0.4 0
v -0.1 0.5 0
v -0.1 0.7 0
v -0.1 1 0
v -0.1 1.1 0
v 0 0 0
v 0 0.1 0
v 0 0.5 0
v 0 0.7 0
v 0 1 0
v 0 1.1 0
v 0 1.2 0
v 0.1 0 0
v 0.1 0.2 0
v 0.1 0.3 0
v 0.1 0.4 0
v 0.1 0.5 0
v 0.1 0.7 0
v 0.1 1 0
v 0.1 1.1 0
v 0.1 1.2 0
v 0.2 0.4 0
v 0.2 0.5 0
v -0.1 0.4 -0.1
v -0.1 0.5 -0.1
v 0.1 0.4 -0.1
v 0.1 0.5 -0.1
v 0 0 0.1
v 0.1 0 0.1
v 0 0 0
v 0.1 0 0
v -0.1 0.1 0.1
v 0 0.1 0.1
v -0.1 0.1 0
v 0 0.1 0
v -0.1 0.4 0.2
v 0.1 0.4 0.2
v -0.2 0.4 0.1
v -0.1 0.4 0.1
v 0.1 0.4 0.1
v 0.2 0.4 0.1
v -0.2 0.4 0
v -0.1 0.4 0
v 0.1 0.4 0
v 0.2 0.4 0
v -0.1 0.4 -0.1
v 0.1 0.4 -0.1
v -0.2 0.7 0.1
v -0.1 0.7 0.1
v -0.2 0.7 0
v -0.1 0.7 0
v -0.1 0.5 0.2
v 0.1 0.5 0.2
v -0.2 0.5 0.1
v -0.1 0.5 0.1
v 0 0.5 0.1
v 0.1 0.5 0.1
v 0.2 0.5 0.1
v -0.2 0.5 0
v -0.1 0.5 0
v 0 0.5 0
v 0.1 0.5 0
v 0.2 0.5 0
v -0.1 0.5 -0.1
v 0.1 0.5 -0.1
v -0.2 1 0.1
v -0.1 1 0.1
v -0.2 1 0
v -0.1 1 0
v -0.1 1.1 0.1
v 0 1.1 0.1
v -0.1 1.1 0
v 0 1.1 0
v 0 1.2 0.1
v 0.1 1.2 0.1
v 0 1.2 0
v 0.1 1.2 0

# faces
f 3/2/1 2/2/1 1/2/1
f 4/2/1 2/2/1 3/2/1
f 7/5/1 6/5/1 5/5/1
f 8/5/1 6/5/1 7/5/1
f 11/1/1 10/1/1 9/1/1
f 12/1/1 10/1/1 11/1/1
f 13/2/1 12/2/1 11/2/1
f 14/2/1 12/2/1 13/2/1
f 16/1/1 14/1/1 13/1/1
f 17/1/1 14/1/1 16/1/1
f 19/2/1 16/2/1 15/2/1
f 20/2/1 16/2/1 19/2/1
f 21/2/1 18/2/1 17/2/1
f 22/2/1 18/2/1 21/2/1
f 23/5/1 21/5/1 20/5/1
f 24/5/1 21/5/1 23/5/1
f 27/5/1 26/5/1 25/5/1
f 28/5/1 26/5/1 27/5/1
f 31/1/1 30/1/1 29/1/1
f 32/1/1 30/1/1 31/1/1
f 35/5/1 34/5/1 33/5/1
f 36/5/1 34/5/1 35/5/1
f 37/1/2 38/1/2 39/1/2
f 39/1/2 38/1/2 40/1/2
f 39/2/2 40/2/2 41/2/2
f 41/2/2 40/2/2 42/2/2
f 41/1/2 42/1/2 44/1/2
f 44/1/2 42/1/2 45/1/2
f 43/2/2 44/2/2 47/2/2
f 47/2/2 44/2/2 48/2/2
f 45/2/2 46/2/2 49/2/2
f 49/2/2 46/2/2 50/2/2
f 48/4/2 49/4/2 51/4/2
f 51/4/2 49/4/2 52/4/2
f 51/3/2 52/3/2 53/3/2
f 53/3/2 52/3/2 54/3/2
f 53/4/2 54/4/2 55/4/2
f 55/4/2 54/4/2 56/4/2
f 55/5/2 56/5/2 57/5/2
f 57/5/2 56/5/2 58/5/2
f 59/2/2 60/2/2 61/2/2
f 61/2/2 60/2/2 62/2/2
f 65/2/3 64/2/3 63/2/3
f 66/2/3 64/2/3 65/2/3
f 74/2/3 68/2/3 67/2/3
f 75/2/3 68/2/3 74/2/3
f 76/5/3 70/5/3 69/5/3
f 77/5/3 70/5/3 76/5/3
f 80/1/3 72/1/3 71/1/3
f 81/5/3 76/5/3 75/5/3
f 82/4/3 77/4/3 76/4/3
f 82/5/3 76/5/3 81/5/3
f 83/5/3 78/5/3 77/5/3
f 83/4/3 77/4/3 82/4/3
f 84/5/3 78/5/3 83/5/3
f 86/1/3 80/1/3 79/1/3
f 87/2/3 73/2/3 72/2/3
f 87/1/3 80/1/3 86/1/3
f 87/1/3 72/1/3 80/1/3
f 88/1/3 74/1/3 73/1/3
f 88/2/3 73/2/3 87/2/3
f 89/1/3 74/1/3 88/1/3
f 90/4/3 82/4/3 81/4/3
f 91/3/3 83/3/3 82/3/3
f 91/4/3 82/4/3 90/4/3
f 92/4/3 84/4/3 83/4/3
f 92/3/3 83/3/3 91/3/3
f 93/5/3 85/5/3 84/5/3
f 93/4/3 84/4/3 92/4/3
f 94/5/3 85/5/3 93/5/3
f 95/2/3 90/2/3 89/2/3
f 96/2/3 90/2/3 95/2/3
f 97/2/4 98/2/4 104/2/4
f 104/2/4 98/2/4 105/2/4
f 99/5/4 100/5/4 106/5/4
f 106/5/4 100/5/4 107/5/4
f 101/1/4 102/1/4 110/1/4
f 105/5/4 106/5/4 111/5/4
f 106/4/4 107/4/4 112/4/4
f 111/5/4 106/5/4 112/5/4
f 107/5/4 108/5/4 113/5/4
f 112/4/4 107/4/4 113/4/4
f 113/5/4 108/5/4 114/5/4
f 109/1/4 110/1/4 116/1/4
f 102/2/4 103/2/4 117/2/4
f 116/1/4 110/1/4 117/1/4
f 110/1/4 102/1/4 117/1/4
f 103/1/4 104/1/4 118/1/4
f 117/2/4 103/2/4 118/2/4
f 118/1/4 104/1/4 119/1/4
f 111/4/4 112/4/4 120/4/4
f 112/3/4 113/3/4 121/3/4
f 120/4/4 112/4/4 121/4/4
f 113/4/4 114/4/4 122/4/4
f 121/3/4 113/3/4 122/3/4
f 114/5/4 115/5/4 123/5/4
f 122/4/4 114/4/4 123/4/4
f 123/5/4 115/5/4 124/5/4
f 119/2/4 120/2/4 125/2/4
f 125/2/4 120/2/4 126/2/4
f 127/2/4 128/2/4 129/2/4
f 129/2/4 128/2/4 130/2/4
f 133/1/5 132/1/5 131/1/5
f 134/1/5 132/1/5 133/1/5
f 137/1/5 136/1/5 135/1/5
f 138/1/5 136/1/5 137/1/5
f 142/2/5 140/2/5 139/2/5
f 143/2/5 140/2/5 142/2/5
f 145/2/5 142/2/5 141/2/5
f 146/2/5 142/2/5 145/2/5
f 147/2/5 144/2/5 143/2/5
f 148/2/5 144/2/5 147/2/5
f 149/2/5 147/2/5 146/2/5
f 150/2/5 147/2/5 149/2/5
f 153/5/5 152/5/5 151/5/5
f 154/5/5 152/5/5 153/5/5
f 155/2/6 156/2/6 158/2/6
f 158/2/6 156/2/6 159/2/6
f 159/2/6 156/2/6 160/2/6
f 157/2/6 158/2/6 162/2/6
f 162/2/6 158/2/6 163/2/6
f 160/2/6 161/2/6 165/2/6
f 165/2/6 161/2/6 166/2/6
f 163/2/6 164/2/6 167/2/6
f 164/2/6 165/2/6 167/2/6
f 167/2/6 165/2/6 168/2/6
f 169/5/6 170/5/6 171/5/6
f 171/5/6 170/5/6 172/5/6
f 173/5/6 174/5/6 175/5/6
f 175/5/6 174/5/6 176/5/6
f 177/5/6 178/5/6 179/5/6
f 179/5/6 178/5/6 180/5/6
